<svg viewBox="0 0 275 300" fill="none" xmlns="http://www.w3.org/2000/svg">
<path d="M82.873 1.83108L78.8446 3.54009L80.7978 8.05676C81.7743 10.4982 82.6288 12.6955 82.6288 12.9397C82.6288 13.4279 91.296 10.0099 92.1505 9.27748C92.8829 8.54505 88.9766 -8.74831e-06 87.878 -8.74831e-06C87.3897 0.122064 85.0703 0.854497 82.873 1.83108Z" fill="white"/>
<path d="M118.03 7.93463C89.3428 13.1837 60.6558 28.9311 39.7814 50.9041C28.1845 62.9892 21.7147 72.5109 14.1462 88.3803C-15.7615 151.125 2.91558 225.345 59.1909 267.094C83.9716 285.527 112.659 294.682 144.886 294.682C170.277 294.682 187.489 290.654 210.194 279.179C229.726 269.413 247.671 254.399 260.732 236.82C267.935 227.176 275.259 214.237 274.16 213.138C273.794 212.772 268.301 210.086 261.953 207.035L250.478 201.663L247.06 207.889C231.313 236.82 201.527 258.427 167.591 265.629C155.994 268.071 133.289 268.071 121.204 265.507C77.99 256.474 43.6877 224.491 31.1143 181.277C27.9404 170.291 26.7197 144.045 28.917 131.106C34.7764 94.3618 59.1909 61.6464 93.0049 45.1667C109.118 37.232 121.326 34.1802 138.782 33.3257C155.14 32.5932 166.859 34.0581 181.019 38.8189L191.029 42.2369L196.034 30.1518C198.72 23.4378 200.673 17.5783 200.306 16.968C199.452 15.381 181.996 10.254 170.643 8.0567C158.192 5.61526 130.969 5.61526 118.03 7.93463Z" fill="white"/>
<path d="M124.011 56.7636C107.531 60.0596 92.0283 68.1163 79.3328 79.8353L71.5202 87.0375L74.3278 88.8686C75.9148 89.8452 77.2576 90.8218 77.5017 90.9438C77.6238 91.188 76.4031 94.9722 74.694 99.611C72.7409 104.738 71.7643 109.377 72.1305 111.33C72.863 115.114 72.6188 115.48 66.6373 116.579C62.853 117.311 62.1206 117.067 61.6323 114.992C61.2661 113.649 59.8012 111.94 58.4584 111.208C56.2611 109.987 55.7728 110.72 52.8431 119.631C49.5472 129.763 47.3499 142.214 47.2278 151.248C47.2278 156.13 47.4719 156.497 50.0354 155.642C51.5003 155.276 55.8949 154.666 59.6792 154.299C65.9048 153.933 66.8814 154.177 68.5904 156.619C69.9332 158.816 70.0553 160.403 69.2008 163.577C67.7359 168.826 67.6139 168.46 69.6891 168.46C70.6657 168.46 72.3747 169.314 73.3513 170.413C75.0603 172.122 75.0603 172.61 73.4733 175.784C72.4967 177.737 70.7877 179.812 69.8112 180.301C67.7359 181.521 68.5904 190.433 70.9098 190.433C71.7643 190.433 72.3747 192.508 72.3747 195.56C72.3747 198.49 72.7409 202.884 73.3513 205.326C74.3278 209.598 74.2058 209.842 70.7877 210.208C67.3697 210.697 67.4918 210.697 75.9148 219.242C85.4364 228.763 91.0517 232.67 89.3427 228.763C84.3378 216.312 84.3378 215.946 86.9013 214.115C88.2441 213.138 90.4414 211.429 91.7842 210.086C93.127 208.866 96.6671 207.401 99.7189 206.912C102.771 206.424 106.311 205.448 107.531 204.837C109.241 203.861 110.095 204.105 110.95 205.57C112.292 208.011 115.832 208.133 120.349 205.814C122.668 204.471 125.842 204.227 130.603 204.715C138.416 205.57 138.294 205.203 140.613 219.12C141.834 225.956 141.834 228.763 140.491 233.036C139.148 237.553 139.148 238.773 140.735 240.971C141.59 242.313 142.444 244.389 142.444 245.609C142.444 248.173 145.13 248.295 157.703 246.586C195.668 241.093 227.04 213.138 237.294 175.784C240.712 163.333 240.346 136.477 236.684 124.514C233.022 113.283 228.017 102.907 221.181 93.3853C213.979 83.1312 211.415 81.056 208.974 83.0091C207.631 84.1078 207.387 84.9623 208.363 85.9389C208.974 86.5492 209.584 88.5024 209.584 90.0893C209.584 91.6763 210.805 94.606 212.147 96.6812C214.345 99.733 214.467 100.588 213.124 101.442C210.072 103.395 207.265 102.541 202.626 98.5123C192.616 89.601 188.71 88.5024 182.85 92.6528C181.019 93.9956 177.967 95.2164 176.014 95.4605C171.253 95.9488 171.253 99.0006 175.892 100.221C178.211 100.832 180.287 100.588 182.118 99.3668C184.437 97.902 185.047 97.902 186.146 99.2448C187.245 100.465 187.123 101.442 185.78 103.273C184.803 104.494 183.949 106.447 183.949 107.546C183.949 109.987 178.822 113.527 175.282 113.527C173.939 113.527 170.887 112.673 168.69 111.574C161.732 108.278 160.267 109.987 166.004 114.748C170.643 118.654 171.742 119.02 179.31 119.143C190.419 119.265 191.273 120.119 190.419 130.984C189.808 139.773 189.808 139.773 193.592 142.58C196.278 144.534 197.377 146.365 197.377 148.684C197.377 150.637 197.987 152.712 198.719 153.445C199.574 154.299 200.306 158.45 200.551 162.722C200.917 169.925 200.673 170.901 197.499 173.831L194.081 177.127L190.907 174.563C189.198 173.221 185.78 171.389 183.338 170.535C179.92 169.314 178.089 167.483 175.648 162.966C173.206 158.328 171.375 156.497 168.201 155.52C165.882 154.788 163.074 152.957 161.854 151.492C159.168 148.318 155.262 149.416 150.745 154.788C145.74 160.769 143.177 161.624 137.927 158.816C129.505 154.543 127.551 151.37 126.575 140.261L125.72 130.129L131.458 124.147L137.195 118.166L141.834 119.753C146.228 121.34 146.35 121.34 149.524 117.556C151.355 115.48 154.529 112.917 156.482 111.818C159.778 110.109 159.901 109.987 157.459 109.865C155.872 109.865 154.651 109.255 154.651 108.644C154.651 107.912 153.553 107.424 152.21 107.424C150.745 107.424 149.158 106.203 148.304 104.372C147.449 102.419 146.228 101.442 145.13 101.93C144.275 102.297 142.078 102.907 140.491 103.273C137.073 104.128 136.829 105.226 139.392 107.424C140.369 108.278 141.223 110.109 141.223 111.452C141.223 113.771 141.101 113.771 139.026 111.94C137.805 110.72 135.12 109.865 133.045 109.865C129.627 109.865 129.138 110.353 127.795 115.48C126.575 119.875 125.354 121.462 122.424 122.683C119.25 124.147 118.64 124.025 118.274 122.561C118.03 121.584 118.64 119.387 119.739 117.8C122.302 113.893 122.18 112.306 119.25 112.306C117.053 112.306 116.931 111.696 117.663 106.447C118.64 98.5123 121.082 94.1177 125.11 93.2632C126.941 92.897 129.016 92.4087 129.749 92.1646C130.603 91.9204 131.458 89.2348 131.702 86.183C132.19 78.8587 129.627 74.9524 124.866 76.1731C122.302 76.7835 121.692 77.638 121.692 80.9339C121.692 83.1312 122.424 85.6947 123.279 86.5492C124.5 87.77 123.889 88.7465 120.715 91.6763C118.396 93.7515 115.954 95.0943 115.222 94.8502C112.659 93.9956 112.903 84.1078 115.588 75.5627C118.518 66.6515 121.204 63.3555 128.04 60.5478C131.946 58.8388 132.556 58.8388 133.167 60.4258C134.143 63.1114 135.608 62.6231 138.538 58.5947L141.346 54.9325L136.707 55.0546C134.143 55.0546 128.406 55.9091 124.011 56.7636Z" fill="white"/>
<path d="M203.847 288.823C199.208 290.776 199.33 290.532 201.527 296.025C203.602 300.908 203.847 300.908 209.218 298.1L213.002 296.025L211.171 291.387C209.096 286.382 209.218 286.382 203.847 288.823Z" fill="white"/>
</svg>
