<?xml version="1.0" encoding="utf-8"?>
<!-- Generator: Adobe Illustrator 23.0.3, SVG Export Plug-In . SVG Version: 6.00 Build 0)  -->
<svg version="1.1" id="Calque_1" xmlns="http://www.w3.org/2000/svg" viewBox="0 0 71.7 71.7" width="21" height="21">
<path fill="#FF00FF" d="M67.7,0H4C1.8,0,0,1.8,0,4v63.8c0,2.2,1.8,4,4,4h34.3V43.9h-9.3V33.1h9.3v-8c0-9.3,5.7-14.3,13.9-14.3
	c4,0,7.4,0.3,8.3,0.4v9.7l-5.7,0c-4.5,0-5.4,2.1-5.4,5.3v6.9h10.7l-1.4,10.8h-9.3v27.8h18.3c2.2,0,4-1.8,4-4V4
	C71.7,1.8,69.9,0,67.7,0z"/>
</svg>
