<?xml version="1.0" encoding="utf-8"?>
<!-- Generator: Adobe Illustrator 23.0.3, SVG Export Plug-In . SVG Version: 6.00 Build 0)  -->
<svg version="1.1" xmlns="http://www.w3.org/2000/svg" viewBox="0 0 704.4 718.8" width="21" height="21">
	<g id="g4" transform="matrix(0.07220382,0,0,-0.07220382,175.13165,1102.0882)">
		<path id="path2" fill="#F800FF"
			d="M2282,15254.1c-893-61-1633-293-2305-721
		c-595-380-1110-875-1511-1454c-267-387-500-852-647-1295c-184-552-270-1166-238-1702c7-116,21-281,32-367
		c184-1467,999-2782,2234-3604c352-234,694-408,1095-554c259-95,587-182,779-207c562-74,1525-48,2086,56c264,49,706,209,1144,414
		c187,87,288,146,386,225c44,36,132,100,195,142c64,43,159,117,212,165c273,247,688,754,921,1123c89,141,279,521,355,710
		c241,599,319,1179,310,2298c-4,470-5,479-32,617c-15,77-30,143-35,148c-4,4-1055,6-2337,5l-2329-3l3-220c6-517,25-1500,31-1620
		l6-130l690-7c1081-11,1700-30,1825-57l35-7l-1-56c-4-189-283-730-513-995c-335-386-943-691-1576-791c-268-43-481-51-731-27
		c-697,67-1399,418-1868,933c-398,438-630,936-729,1562c-18,116-21,179-22,450c0,336,7,409,60,681c77,390,247,751,515,1099
		c96,123,356,385,490,490c358,284,804,501,1222,594c510,114,941,93,1410-70c375-131,721-319,931-506c50-46,100-89,110-97
		c16-13,56,24,448,415c629,626,979,1006,979,1062c0,64-309,319-660,542c-519,332-976,524-1545,650
		C3275,15241.1,2714,15284.1,2282,15254.1z" />
	</g>
</svg>